<?xml version="1.0" standalone="no"?>
<!DOCTYPE svg PUBLIC "-//W3C//DTD SVG 20010904//EN"
 "http://www.w3.org/TR/2001/REC-SVG-20010904/DTD/svg10.dtd">
<svg version="1.0" xmlns="http://www.w3.org/2000/svg"
 width="500.000000pt" height="500.000000pt" viewBox="0 0 500.000000 500.000000"
 preserveAspectRatio="xMidYMid meet">
<metadata>
Created by potrace 1.11, written by Peter Selinger 2001-2013
</metadata>
<g transform="translate(0.000000,500.000000) scale(0.100000,-0.100000)"
fill="#000000" stroke="none">
<path d="M0 2500 l0 -2500 2500 0 2500 0 0 2500 0 2500 -2500 0 -2500 0 0
-2500z m2026 685 c134 -290 279 -641 419 -1016 75 -199 205 -565 205 -574 0
-3 -93 -4 -206 -3 l-206 3 -58 172 c-32 95 -61 177 -65 183 -4 6 -125 10 -339
10 l-332 0 -63 -185 -64 -185 -198 0 c-110 0 -199 2 -199 5 0 10 160 456 230
640 140 371 288 727 393 948 l60 127 184 -2 184 -3 55 -120z m1784 -505 c0
-529 -2 -643 -15 -708 -42 -209 -167 -337 -384 -393 -98 -26 -310 -28 -423 -4
-82 17 -228 74 -265 103 l-21 17 55 125 c30 69 59 135 64 148 l9 22 58 -29
c107 -54 173 -71 276 -71 83 0 100 3 147 28 63 33 94 83 109 177 6 34 10 308
10 638 l0 577 190 0 190 0 0 -630z"/>
<path d="M1738 2813 c-20 -54 -73 -194 -117 -311 -45 -117 -81 -217 -81 -222
0 -6 95 -10 241 -10 226 0 241 1 234 18 -4 9 -31 82 -60 162 -56 154 -175 460
-179 460 -1 0 -18 -44 -38 -97z"/>
</g>
</svg>
